<svg xmlns="http://www.w3.org/2000/svg" xmlns:xlink="http://www.w3.org/1999/xlink" viewBox="0 0 12.641 31.273" overflow="visible"><path d="M 9.704 0 C 9.808 1.287 9.279 3.929 6.331 4.202 C 6.204 1.954 8.075 0.38 9.704 0 Z M 6.274 29.832 C 7.174 30.79 9.533 32.236 11.768 30.36 C 10.159 28.726 7.682 28.953 6.274 29.832 Z M 12.386 29.616 C 11.21 28.991 9.21 27.112 10.615 24.603 C 12.638 25.739 12.964 28.103 12.386 29.616 Z M 0.005 13.988 C -0.063 15.277 0.539 17.902 3.497 18.095 C 3.562 15.845 1.646 14.323 0.005 13.988 Z M 4.489 17.984 C 4.119 16.743 4.087 14.056 6.924 13.236 C 7.518 15.414 6.009 17.307 4.489 17.984 Z M 4.297 13.126 C 4.226 11.838 4.822 9.211 7.779 9.012 C 7.85 11.261 5.937 12.788 4.297 13.126 Z M 0.859 8.275 C 0.491 9.517 0.466 12.204 3.304 13.018 C 3.893 10.839 2.38 8.949 0.859 8.275 Z M 2.527 25.496 C 3.121 26.655 4.98 28.669 7.659 27.456 C 6.574 25.459 4.129 25.023 2.527 25.496 Z M 8.472 26.897 C 7.518 25.985 6.127 23.651 8.187 21.609 C 9.811 23.236 9.455 25.595 8.472 26.897 Z M 4.961 8.107 C 5.437 6.899 7.087 4.722 9.874 5.682 C 8.993 7.769 6.603 8.43 4.961 8.107 Z M 3.853 2.335 C 2.994 3.331 1.841 5.783 4.095 7.624 C 5.549 5.854 4.961 3.539 3.853 2.335 Z M 0.607 19.16 C 0.666 20.45 1.523 23.011 4.485 22.938 C 4.329 20.692 2.273 19.347 0.607 19.16 Z M 5.464 22.738 C 4.974 21.535 4.678 18.861 7.42 17.791 C 8.225 19.907 6.91 21.928 5.464 22.738 Z" fill="rgba(255,255,255,0.4)"></path></svg>